<svg width="40" height="40" viewBox="0 0 40 40" fill="none" xmlns="http://www.w3.org/2000/svg">
<path fill-rule="evenodd" clip-rule="evenodd" d="M15.7015 1.14726C15.9005 0.909915 15.9214 0.567841 15.7469 0.309561C15.5741 0.0512713 15.2512 -0.0621693 14.9546 0.0338158C6.84292 2.60277 1 10.2154 1 19.1821C1 30.3551 10.0718 39.4264 21.2443 39.4264C27.6162 39.4264 33.3054 36.477 36.9475 31.8138C37.1395 31.566 37.1447 31.2222 36.958 30.9691C36.773 30.7161 36.4414 30.6201 36.1482 30.7318C34.3332 31.4212 32.3628 31.7475 30.3173 31.7475C19.9142 31.7475 11.4688 23.3025 11.4688 12.8989C11.4688 8.4312 13.0273 4.3231 15.6974 1.14653L15.7015 1.14726ZM30.274 16.9329C30.171 16.6624 29.911 16.4827 29.6213 16.4827C29.3316 16.4827 29.0733 16.6607 28.9686 16.9329L27.7312 20.179L24.4851 21.4164C24.2146 21.5193 24.0349 21.7794 24.0349 22.0691C24.0349 22.3587 24.2129 22.6171 24.4851 22.7217L27.7312 23.9591L28.9686 27.2052C29.0715 27.4757 29.3316 27.6554 29.6213 27.6554C29.911 27.6554 30.1693 27.4774 30.274 27.2052L31.5113 23.9591L34.7574 22.7217C35.0279 22.6188 35.2077 22.3587 35.2077 22.0691C35.2077 21.7794 35.0296 21.521 34.7574 21.4164L31.5113 20.179L30.274 16.9329ZM20.7015 7.76355C20.5985 7.49304 20.3385 7.31329 20.0488 7.31329C19.7591 7.31329 19.499 7.49131 19.3961 7.76355L18.1588 11.0096L14.9127 12.247C14.6422 12.35 14.4624 12.61 14.4624 12.8997C14.4624 13.1894 14.6404 13.4477 14.9127 13.5524L18.1588 14.7897L19.3961 18.0358C19.4973 18.3063 19.7574 18.4861 20.0488 18.4861C20.3385 18.4861 20.5968 18.3081 20.7015 18.0358L21.9388 14.7897L25.1849 13.5524C25.4554 13.4494 25.6352 13.1894 25.6352 12.8997C25.6352 12.61 25.4572 12.3517 25.1849 12.247L21.9388 11.0096L20.7015 7.76355ZM34.0663 2.87673C33.9633 2.60622 33.7033 2.42647 33.4136 2.42647C33.1239 2.42647 32.8656 2.60448 32.7609 2.87673L31.5236 6.12282L28.2775 7.36016C28.007 7.46313 27.8272 7.72317 27.8272 8.01285C27.8272 8.30254 28.0052 8.56087 28.2775 8.66555L31.5236 9.90289L32.7609 13.149C32.8639 13.4195 33.1239 13.5992 33.4136 13.5992C33.7033 13.5992 33.9616 13.4212 34.0663 13.149L35.3037 9.90289L38.5497 8.66555C38.8202 8.56258 39 8.30254 39 8.01285C39 7.72317 38.822 7.46484 38.5497 7.36016L35.3037 6.12282L34.0663 2.87673Z" fill="#A35BFF"/>
</svg>
