<svg width="18" height="18" viewBox="0 0 18 18" fill="none" xmlns="http://www.w3.org/2000/svg">
<path d="M8.06974 1.35872C8.40266 0.51457 9.59734 0.51457 9.93026 1.35872L10.5537 2.93936C11.3668 5.00114 12.9989 6.63319 15.0606 7.44634L16.6413 8.06974C17.4854 8.40266 17.4854 9.59734 16.6413 9.93026L15.0606 10.5537C12.9989 11.3668 11.3668 12.9989 10.5537 15.0606L9.93026 16.6413C9.59734 17.4854 8.40266 17.4854 8.06974 16.6413L7.44634 15.0606C6.63319 12.9989 5.00114 11.3668 2.93936 10.5537L1.35872 9.93026C0.51457 9.59734 0.51457 8.40266 1.35872 8.06974L2.93936 7.44634C5.00114 6.63319 6.63319 5.00114 7.44634 2.93936L8.06974 1.35872Z" fill="white"/>
</svg>
